HIERARCHY
ROOT hip
{
	OFFSET 0.000000 0.000000 0.000000 
	CHANNELS 6 Xposition Yposition Zposition Xrotation Zrotation Yrotation
	JOINT abdomen
	{
		OFFSET 0.000000 3.402643 0.000000 
		CHANNELS 3 Xrotation Zrotation Yrotation
		JOINT chest
		{
			OFFSET 0.000000 8.438565 -0.680529 
			CHANNELS 3 Xrotation Zrotation Yrotation
			JOINT neck
			{
				OFFSET 0.000000 10.207942 -0.272212 
				CHANNELS 3 Xrotation Zrotation Yrotation
				JOINT head
				{
					OFFSET 0.000000 3.130431 0.000000 
					CHANNELS 3 Xrotation Zrotation Yrotation
					End Site
					{
						OFFSET 0.000000 3.130435 0.000000 
					}
				}
			}
			JOINT lCollar
			{
				OFFSET 3.470700 6.669187 -0.816635 
				CHANNELS 3 Yrotation Zrotation Xrotation
				JOINT lShldr
				{
					OFFSET 3.198488 0.000000 0.000000 
					CHANNELS 3 Zrotation Yrotation Xrotation
					JOINT lForeArm
					{
						OFFSET 10.139888 0.000000 0.000000 
						CHANNELS 3 Yrotation Zrotation Xrotation
						JOINT lHand
						{
							OFFSET 8.370511 0.000000 0.000000 
							CHANNELS 3 Zrotation Yrotation Xrotation
							End Site
							{
								OFFSET 4.083176 0.000000 0.000000 
							}
						}
					}
				}
			}
			JOINT rCollar
			{
				OFFSET -3.470700 6.669187 -0.816635 
				CHANNELS 3 Yrotation Zrotation Xrotation
				JOINT rShldr
				{
					OFFSET -3.198488 0.000000 0.000000 
					CHANNELS 3 Zrotation Yrotation Xrotation
					JOINT rForeArm
					{
						OFFSET -10.139888 0.000000 0.000000 
						CHANNELS 3 Yrotation Zrotation Xrotation
						JOINT rHand
						{
							OFFSET -8.370511 0.000000 0.000000 
							CHANNELS 3 Zrotation Yrotation Xrotation
							End Site
							{
								OFFSET -4.083176 0.000000 0.000000 
							}
						}
					}
				}
			}
		}
	}
	JOINT lThigh
	{
		OFFSET 5.308129 -1.633274 1.361059 
		CHANNELS 3 Xrotation Zrotation Yrotation
		JOINT lShin
		{
			OFFSET -2.041588 -20.007561 0.000000 
			CHANNELS 3 Xrotation Zrotation Yrotation
			JOINT lFoot
			{
				OFFSET 0.000000 -19.190928 -1.224953 
				CHANNELS 3 Xrotation Yrotation Zrotation
				End Site
				{
					OFFSET 0.000000 -2.449906 4.627600 
				}
			}
		}
	}
	JOINT rThigh
	{
		OFFSET -5.308129 -1.633274 1.361059 
		CHANNELS 3 Xrotation Zrotation Yrotation
		JOINT rShin
		{
			OFFSET 2.041588 -20.007561 0.000000 
			CHANNELS 3 Xrotation Zrotation Yrotation
			JOINT rFoot
			{
				OFFSET 0.000000 -19.190928 -1.224953 
				CHANNELS 3 Xrotation Yrotation Zrotation
				End Site
				{
					OFFSET 0.000000 -2.449906 4.627600 
				}
			}
		}
	}
}
MOTION
Frames: 13
Frame Time: 0.011111
24.489321 49.492371 -120.487053 7.123299 -3.805559 0.843138 9.759251 2.053191 0.446815 -14.721324 3.499657 0.458929 -16.959694 -9.431463 -1.741339 23.242964 25.554590 -0.755895 -2.946841 -9.472683 0.034639 -61.151974 -23.425426 27.821159 -49.765987 7.644079 8.054372 8.524705 12.647240 -38.157600 7.873402 6.594518 -1.033983 52.838028 12.459487 34.200714 74.111115 -8.473298 19.175957 -8.534408 -12.637552 73.099472 -37.726376 13.785517 4.307795 43.721256 -4.358175 -6.537933 -21.418545 2.881117 -1.532544 -3.513188 3.951680 2.501177 24.034904 5.632257 4.056291 -4.993603 0.513351 3.215371 
24.502115 49.483189 -120.086212 6.984619 -3.544611 0.746164 9.805624 1.689180 0.235525 -15.102940 3.493098 0.406295 -16.565964 -8.912731 -1.751644 23.499630 25.014830 -0.596943 -2.946841 -9.472683 0.034639 -61.105919 -22.737400 27.885731 -49.943130 7.685222 8.132910 8.524705 12.647240 -38.089245 7.873402 6.594518 -1.033983 53.086040 12.017248 34.409737 74.631439 -8.350612 19.445797 -8.534408 -12.637552 74.310410 -37.682228 13.455564 3.987297 41.580753 -4.533692 -6.271493 -21.068365 2.450314 -1.712572 -2.771194 3.718049 2.875211 23.712027 5.639595 4.028773 -5.005184 0.509494 3.213870 
24.498507 49.453007 -119.700127 7.082676 -3.526647 0.585065 9.549674 1.522415 0.412666 -15.004385 3.609011 0.471984 -16.729151 -8.639394 -1.773030 24.186892 24.773766 -0.500162 -2.946841 -9.472683 0.034639 -61.217155 -22.803055 27.957102 -49.745461 7.642120 8.052208 8.524705 12.647240 -38.421280 7.873402 6.594518 -1.033983 53.125473 11.933477 34.301605 75.130066 -8.227326 19.711624 -8.534408 -12.637552 75.677597 -38.151245 13.446260 3.559234 39.751427 -4.686130 -6.068524 -20.880754 1.938440 -1.924940 -2.107669 3.736911 3.327270 23.176569 5.657647 3.944904 -5.002260 0.517937 3.217478 
24.516548 49.437263 -119.295692 7.153468 -3.762265 0.334895 9.255389 1.825145 1.066554 -14.749944 3.614302 0.654100 -16.197956 -9.670957 -1.938684 23.384216 25.494291 -1.010893 -2.946841 -9.472683 0.034639 -61.412155 -22.913094 28.983286 -49.848717 7.659370 8.084740 8.524705 12.647240 -38.196663 7.873402 6.594518 -1.033983 52.972202 11.855810 34.026100 75.462814 -8.137848 19.889292 -8.534408 -12.637552 76.722519 -38.515499 13.710950 3.262464 37.781490 -4.833869 -5.837843 -20.352085 2.157553 -1.911684 -1.355544 3.965370 3.515729 22.657413 5.690836 3.846080 -5.001155 0.513072 3.236624 
24.561483 49.434643 -118.862396 7.046411 -3.783919 0.044004 9.257307 1.958290 1.042278 -14.456206 3.640578 0.653597 -16.377155 -9.910489 -1.652169 23.454041 26.012751 -0.407683 -2.946841 -9.472683 0.034639 -61.553398 -22.833818 29.686785 -50.288269 7.766372 8.269917 8.524705 12.647240 -37.581432 7.873402 6.594518 -1.033983 52.780521 12.157306 34.511108 75.746979 -8.063571 20.050423 -8.534408 -12.637552 77.620956 -38.498730 13.707932 2.885565 35.858456 -4.962296 -5.611426 -20.101908 2.559885 -1.798442 -0.380728 3.918202 3.618469 22.048094 5.707604 3.803319 -4.994476 0.510855 3.214297 
24.603472 49.440220 -118.419891 6.917947 -3.593785 -0.298395 9.285484 1.787331 0.901830 -14.319554 3.590827 0.631927 -16.526075 -9.565353 -1.531381 23.634815 25.724075 -0.109583 -2.946841 -9.472683 0.034639 -61.561275 -22.726643 29.745388 -50.288269 7.766372 8.269917 8.524705 12.647240 -37.952526 7.873402 6.594518 -1.033983 52.897964 12.289626 34.982498 76.068298 -7.971302 20.216949 -8.534408 -12.637552 78.363144 -38.382793 13.572089 2.379965 33.970589 -5.094848 -5.367432 -20.626484 2.616205 -1.721115 0.603183 3.653534 3.755625 21.387344 5.728853 3.709224 -5.015321 0.505762 3.223040 
24.621513 49.475311 -117.998718 6.878285 -3.526381 -0.612392 9.294945 1.628970 0.709312 -14.378516 3.553425 0.578632 -16.603983 -8.872855 -1.601242 23.723333 24.990973 -0.238239 -2.946841 -9.472683 0.034639 -61.451797 -22.504475 29.590090 -50.266716 7.758358 8.261515 8.524705 12.647240 -38.460339 7.873402 6.594518 -1.033983 53.144718 12.309776 35.466713 76.327217 -7.892687 20.355724 -8.534408 -12.637552 78.792831 -38.384533 13.611727 1.876000 32.029957 -5.216286 -5.102254 -20.847210 2.803070 -1.637758 1.480413 3.537261 4.074905 20.753656 5.756355 3.617617 -4.996404 0.497241 3.229689 
24.626104 49.466129 -117.580177 6.927462 -3.587536 -0.917996 9.206524 1.575621 0.728393 -14.387968 3.602140 0.588792 -17.089300 -8.494298 -1.623312 24.657167 24.694708 -0.162524 -2.946841 -9.472683 0.034639 -61.257549 -21.983397 30.431181 -50.862675 7.890550 8.501166 8.524705 12.647240 -37.923233 7.873402 6.594518 -1.033983 53.343498 12.255280 35.702538 76.585617 -7.812301 20.495731 -8.534408 -12.637552 78.997910 -38.573227 13.798473 1.290954 30.194067 -5.323310 -4.859532 -20.565151 3.006988 -1.599481 2.313385 3.592367 4.656286 20.015354 5.786617 3.526299 -26.223309 3.284070 3.694380 
24.643490 49.405449 -117.144882 6.966476 -3.632782 -1.270367 8.989253 1.537750 0.957206 -14.055950 3.509274 0.665905 -17.732601 -8.169696 -1.743240 25.532276 24.126865 -0.410179 -2.946841 -9.472683 0.034639 -60.911045 -21.824818 31.453602 -51.197495 7.961260 8.632523 8.524705 12.647240 -37.503304 7.873402 6.594518 -1.033983 53.634544 12.379466 35.640335 76.843353 -7.730676 20.644056 -8.534408 -12.637552 79.163918 -38.764896 14.002454 0.611047 28.532948 -5.415690 -4.646155 -20.548195 3.184921 -1.537223 3.197719 3.588688 5.024054 19.165934 5.806511 3.394298 -26.109306 3.433246 3.788730 
24.678915 49.398560 -116.698143 7.016547 -3.883374 -1.707787 8.746605 1.895346 1.159353 -13.743633 3.406748 0.720965 -17.919579 -7.884409 -1.854308 25.542858 23.396320 -0.757286 -2.946841 -9.472683 0.034639 -60.920464 -21.962425 31.517809 -50.862675 7.890550 8.501166 8.524705 12.647240 -38.020885 7.873402 6.594518 -1.033983 53.742889 12.432129 35.861893 77.100464 -7.646431 20.783861 -8.534408 -12.637552 79.300644 -39.036476 14.421582 -0.262959 26.988350 -5.488835 -4.466327 -20.749327 3.670962 -1.317129 4.184342 3.736428 5.132822 18.278795 5.833137 3.298457 -25.844360 3.770321 3.954885 
24.714012 49.410694 -116.255966 7.094441 -3.985572 -2.139367 8.581485 2.045908 1.312284 -13.831178 3.475292 0.747091 -17.822363 -7.593145 -1.862966 25.462120 22.856150 -0.834368 -2.946841 -9.472683 0.034639 -61.032604 -21.480024 31.927063 -51.061840 7.934876 8.580736 8.524705 12.647240 -38.216198 7.873402 6.594518 -1.033983 53.796688 12.163146 36.217888 77.337936 -7.568334 20.919683 -8.534408 -12.637552 79.417824 -39.316650 14.707385 -1.072135 25.626040 -5.578176 -4.276116 -21.136734 4.247076 -1.088859 5.222263 3.709573 5.260870 17.180841 5.864492 3.126145 -25.580591 3.900021 4.038395 
24.757309 49.383141 -115.821030 7.014213 -3.932401 -2.510758 8.628189 1.965232 1.501642 -13.830621 3.551612 0.808018 -17.695303 -7.172750 -1.991620 25.147097 22.112036 -1.161697 -2.946841 -9.472683 0.034639 -61.006268 -20.900936 32.678936 -51.669205 8.060895 8.825133 8.524705 12.647240 -38.050186 7.873402 6.594518 -1.033983 53.875793 11.995704 36.431454 77.543633 -7.495641 21.023003 -8.534408 -12.637552 79.486183 -39.450905 14.793822 -1.588835 24.411030 -5.601593 -4.132253 -21.638695 4.766566 -0.818078 6.404531 3.534438 5.377380 16.001181 5.894633 2.964762 -25.392065 3.999524 4.094091 
24.808481 49.374943 -115.370651 6.856353 -3.989678 -2.899513 8.677018 2.068558 1.709219 -13.546852 3.555621 0.874693 -17.987679 -7.744633 -1.812224 25.787622 23.181068 -0.655143 -2.946841 -9.472683 0.034639 -61.085510 -20.739479 32.719704 -51.899780 8.107046 8.918386 8.524705 12.647240 -38.411510 7.873402 6.594518 -1.033983 53.921814 12.011205 36.661369 77.757729 -7.418256 21.147106 -8.534408 -12.637552 79.495949 -39.436913 14.978053 -2.341742 23.157282 -5.649876 -3.970861 -21.935061 5.602086 -0.478703 7.627079 3.447369 5.427803 15.006081 5.903938 2.836900 -25.319330 4.371173 4.278022 
